<svg width="29" height="29" viewBox="0 0 29 29" fill="none" xmlns="http://www.w3.org/2000/svg">
<path d="M14.5 25.375C20.5061 25.375 25.375 20.5061 25.375 14.5C25.375 8.4939 20.5061 3.625 14.5 3.625C8.4939 3.625 3.625 8.4939 3.625 14.5C3.625 20.5061 8.4939 25.375 14.5 25.375Z" stroke="white" stroke-linecap="round" stroke-linejoin="round"/>
<path d="M10.4219 15.8594C11.1726 15.8594 11.7812 15.2508 11.7812 14.5C11.7812 13.7492 11.1726 13.1406 10.4219 13.1406C9.67111 13.1406 9.0625 13.7492 9.0625 14.5C9.0625 15.2508 9.67111 15.8594 10.4219 15.8594Z" fill="white"/>
<path d="M18.5781 15.8594C19.3289 15.8594 19.9375 15.2508 19.9375 14.5C19.9375 13.7492 19.3289 13.1406 18.5781 13.1406C17.8274 13.1406 17.2188 13.7492 17.2188 14.5C17.2188 15.2508 17.8274 15.8594 18.5781 15.8594Z" fill="white"/>
<path d="M17.502 19.0312C16.6123 19.6221 15.568 19.9373 14.5 19.9373C13.432 19.9373 12.3877 19.6221 11.498 19.0312" stroke="white" stroke-linecap="round" stroke-linejoin="round"/>
<path d="M14.5 3.625C12.6875 5.89062 12.6875 8.15625 12.6875 8.15625C12.6875 8.63695 12.8785 9.09797 13.2184 9.43788C13.5583 9.77779 14.0193 9.96875 14.5 9.96875C14.9807 9.96875 15.4417 9.77779 15.7816 9.43788C16.1215 9.09797 16.3125 8.63695 16.3125 8.15625" stroke="white" stroke-linecap="round" stroke-linejoin="round"/>
</svg>
