<svg width="17" height="17" viewBox="0 0 17 17" fill="none" xmlns="http://www.w3.org/2000/svg">
<path d="M2.51676 13.8059L6.08941 3.97113C6.12 3.88698 6.17136 3.81192 6.23872 3.75293C6.30608 3.69393 6.38726 3.65293 6.47472 3.63371C6.56218 3.6145 6.65307 3.6177 6.73896 3.64303C6.82484 3.66835 6.90293 3.71497 6.96598 3.77856L13.2214 10.034C13.285 10.0971 13.3317 10.1752 13.357 10.261C13.3823 10.3469 13.3855 10.4378 13.3663 10.5253C13.3471 10.6127 13.3061 10.6939 13.2471 10.7613C13.1881 10.8286 13.113 10.88 13.0289 10.9106L3.1941 14.4832C3.09949 14.5194 2.99642 14.5274 2.89735 14.5063C2.79829 14.4852 2.70746 14.4358 2.63583 14.3642C2.56421 14.2925 2.51485 14.2017 2.49372 14.1026C2.47259 14.0036 2.48059 13.9005 2.51676 13.8059V13.8059Z" stroke="white" stroke-linecap="round" stroke-linejoin="round"/>
<path d="M11.1562 4.78125C11.1562 4.78125 11.1562 3.1875 12.75 3.1875C14.3438 3.1875 14.3438 1.59375 14.3438 1.59375" stroke="white" stroke-linecap="round" stroke-linejoin="round"/>
<path d="M6.79995 13.175L3.82495 10.2" stroke="white" stroke-linecap="round" stroke-linejoin="round"/>
<path d="M9.5625 1.0625V2.65625" stroke="white" stroke-linecap="round" stroke-linejoin="round"/>
<path d="M14.3438 7.4375L15.4062 8.5" stroke="white" stroke-linecap="round" stroke-linejoin="round"/>
<path d="M14.3438 5.3125L15.9375 4.78125" stroke="white" stroke-linecap="round" stroke-linejoin="round"/>
<path d="M5.1001 6.69373L10.3063 11.9" stroke="white" stroke-linecap="round" stroke-linejoin="round"/>
</svg>
