<svg width="77" height="77" viewBox="0 0 77 77" fill="none" xmlns="http://www.w3.org/2000/svg">
<path fill-rule="evenodd" clip-rule="evenodd" d="M13.501 25.1357L15.3219 25.1325L19.3281 25.1255L19.3336 28.2818L19.3398 31.8272C20.6669 30.9645 22.2497 30.4618 23.9504 30.4589C27.1266 30.4533 29.8985 32.1914 31.3613 34.7703L31.2376 28.5738L29.4166 28.577L29.4111 25.4207L31.2321 25.4175L35.2383 25.4105L35.244 28.5668L35.25 32.1122C36.5771 31.2495 38.1599 30.7469 39.8606 30.7439C43.4042 30.7377 46.4444 32.9017 47.725 35.9824C48.8921 32.8511 51.9059 30.6183 55.4444 30.6121C60.3886 30.6035 64.2055 34.9023 63.6578 39.792L63.8459 49.2218L65.6142 49.2188L65.6195 52.2834L63.8513 52.2868L59.9615 52.2935L59.9561 49.2285L59.9501 45.7859C58.6614 46.6237 57.1245 47.1117 55.4732 47.1147C52.0663 47.1207 49.1384 45.061 47.8741 42.1167C46.6974 45.3899 43.5689 47.7329 39.89 47.7393C36.147 47.746 33.0312 45.3548 31.8674 42.0873C30.6228 45.2258 27.5624 47.4482 23.98 47.4542C18.8883 47.4632 14.9572 43.0357 15.5214 38.0003L15.3274 28.2888L13.5065 28.292L13.501 25.1357ZM39.8666 34.296C42.4814 34.2914 44.6049 36.4072 44.6093 39.022C44.614 41.6368 42.4981 43.7603 39.8833 43.765C37.2685 43.7693 35.145 41.6535 35.1407 39.0387C35.136 36.4239 37.2518 34.3004 39.8666 34.296ZM58.3032 35.5162C58.3272 35.545 58.351 35.574 58.3747 35.6031C58.3466 35.574 58.3189 35.545 58.2911 35.5162H58.3032ZM58.3988 35.6328C59.2356 36.6772 59.7994 37.9729 59.6109 39.4341C59.3178 41.7086 58.4459 42.2791 57.6024 42.9662C57.5496 43.0093 57.4984 43.0501 57.448 43.0882C58.0398 41.2444 58.1354 39.9143 57.9098 39.3762C57.6244 41.1529 57.0232 43.1103 55.4461 43.6701C52.9944 43.7937 51.3675 41.8403 51.2956 39.4785C51.2248 37.1528 55.5256 35.4885 54.1808 33.5822C55.813 34.0083 56.177 34.6336 57.0035 37.0475C57.1987 37.6177 59.0856 37.5207 58.3988 35.6328ZM23.9566 34.011C26.5713 34.0063 28.6947 36.1225 28.6993 38.7372C28.7039 41.3517 26.5879 43.4752 23.9731 43.4799C21.3584 43.4842 19.235 41.3684 19.2304 38.7536C19.2258 36.1388 21.3418 34.0156 23.9566 34.011Z" fill="black"/>
<path d="M14.7378 21.2943L14.7683 16.3816L12.9331 16.3702L12.9372 15.7129L17.3521 15.7403L17.3481 16.3976L15.5054 16.3861L15.4749 21.2988L14.7378 21.2943ZM17.9901 21.3144L18.0247 15.7444L18.7086 15.7487L18.6962 17.7472C19.0176 17.3794 19.4215 17.1969 19.9078 17.2C20.2067 17.2018 20.466 17.2629 20.6856 17.3834C20.9053 17.5012 21.0613 17.6643 21.1537 17.8726C21.2487 18.0809 21.295 18.3826 21.2925 18.7778L21.2766 21.3348L20.5928 21.3305L20.6086 18.7735C20.6107 18.4316 20.5376 18.1829 20.3891 18.0274C20.2431 17.8695 20.0346 17.7897 19.7636 17.788C19.561 17.7867 19.3694 17.8387 19.1889 17.944C19.011 18.0468 18.8834 18.1878 18.8063 18.3672C18.7292 18.5466 18.6897 18.7946 18.6877 19.1112L18.674 21.3187L17.9901 21.3144ZM25.0918 20.059L25.7979 20.1508C25.6839 20.5629 25.4755 20.8821 25.1726 21.1082C24.8698 21.3343 24.4841 21.4459 24.0155 21.443C23.4253 21.4393 22.9578 21.2553 22.613 20.8909C22.2708 20.5241 22.1018 20.0126 22.1058 19.3566C22.11 18.6777 22.2881 18.1519 22.64 17.7792C22.9918 17.4065 23.4464 17.2219 24.0037 17.2254C24.5432 17.2287 24.9828 17.415 25.3225 17.7845C25.6621 18.1539 25.8299 18.6716 25.8258 19.3378C25.8255 19.3783 25.8239 19.4391 25.8208 19.5201L22.8117 19.5015C22.8343 19.9449 22.9575 20.2851 23.1815 20.5221C23.4055 20.7591 23.6859 20.8786 24.0228 20.8807C24.2735 20.8822 24.488 20.8177 24.6661 20.6871C24.8442 20.5565 24.9861 20.3471 25.0918 20.059ZM22.8531 18.9394L25.1062 18.9534C25.0779 18.6138 24.9934 18.3587 24.8526 18.1881C24.6364 17.9233 24.3548 17.7899 24.0078 17.7877C23.6937 17.7857 23.4283 17.8892 23.2117 18.0981C22.9976 18.3071 22.8781 18.5875 22.8531 18.9394Z" fill="black"/>
<path d="M24.2999 55.1182L25.1384 55.3214C24.9698 56.0098 24.6587 56.5375 24.2052 56.9041C23.7546 57.2681 23.2002 57.4532 22.542 57.4596C21.8608 57.4663 21.3046 57.3336 20.8737 57.0619C20.4455 56.7872 20.1168 56.3881 19.8874 55.8644C19.6609 55.3404 19.5447 54.7766 19.5388 54.1731C19.5324 53.515 19.6518 52.9402 19.8971 52.4492C20.1452 51.9553 20.4994 51.5793 20.9597 51.322C21.4228 51.0616 21.9332 50.9286 22.4909 50.9233C23.1232 50.9169 23.6565 51.0727 24.0908 51.3905C24.5251 51.708 24.83 52.1578 25.0053 52.7397L24.1837 52.9419C24.0326 52.4833 23.8166 52.1505 23.5357 51.9436C23.2548 51.7364 22.9031 51.6348 22.4806 51.6391C21.9948 51.6438 21.5893 51.7641 21.2639 52.0001C20.9414 52.2364 20.7159 52.5518 20.5875 52.9469C20.4592 53.3392 20.397 53.7436 20.4011 54.1604C20.4064 54.6978 20.4886 55.167 20.6477 55.568C20.8097 55.966 21.057 56.2625 21.3895 56.4577C21.722 56.6525 22.0808 56.7484 22.466 56.7444C22.9345 56.7401 23.3298 56.601 23.652 56.3277C23.9741 56.0543 24.1901 55.6512 24.2999 55.1182ZM25.7823 55.0303C25.774 54.1824 26.0035 53.5521 26.4709 53.1394C26.8614 52.7961 27.3397 52.622 27.906 52.6163C28.5355 52.6103 29.052 52.8122 29.4556 53.2223C29.8592 53.6293 30.0645 54.1965 30.0716 54.9237C30.0774 55.5129 29.9928 55.9781 29.818 56.319C29.6459 56.6568 29.3912 56.9209 29.0539 57.111C28.7194 57.3012 28.3524 57.3984 27.9529 57.4021C27.3119 57.4085 26.7911 57.2079 26.3904 56.8009C25.9926 56.3938 25.7899 55.8036 25.7823 55.0303ZM26.5799 55.0226C26.5857 55.6088 26.7179 56.0476 26.9766 56.338C27.2352 56.6258 27.5586 56.7678 27.9466 56.7641C28.3318 56.7604 28.6509 56.6107 28.9038 56.315C29.1567 56.0192 29.2803 55.571 29.2744 54.9701C29.2688 54.404 29.1353 53.9769 28.8737 53.6891C28.6151 53.3987 28.2946 53.255 27.9123 53.259C27.5242 53.2627 27.2037 53.4111 26.9508 53.7038C26.6978 53.9966 26.5742 54.4361 26.5799 55.0226ZM31.0087 57.2688L30.9639 52.6899L31.658 52.6832L31.6643 53.3255C31.8059 53.0999 31.9952 52.9185 32.2325 52.7811C32.4697 52.6407 32.7406 52.5689 33.0453 52.5662C33.3845 52.5629 33.6627 52.6304 33.8796 52.7691C34.0995 52.9078 34.2552 53.1033 34.3468 53.3553C34.7037 52.8172 35.1723 52.5452 35.7531 52.5395C36.2069 52.5351 36.5575 52.6581 36.8045 52.9088C37.0511 53.1564 37.1771 53.5418 37.1821 54.0648L37.2129 57.2079L36.4412 57.2156L36.4132 54.3311C36.4098 54.0207 36.3817 53.7981 36.3289 53.6637C36.2785 53.526 36.1869 53.4164 36.0539 53.3342C35.9209 53.2523 35.7651 53.2122 35.587 53.2139C35.2652 53.2169 34.9988 53.3275 34.7883 53.5451C34.5777 53.76 34.4748 54.1029 34.4795 54.5744L34.5055 57.2347L33.7292 57.242L33.7001 54.2673C33.6968 53.9224 33.6309 53.6641 33.5029 53.493C33.3747 53.3218 33.1669 53.2376 32.8794 53.2403C32.661 53.2426 32.4589 53.3021 32.2732 53.4188C32.0904 53.5354 31.9584 53.7052 31.8772 53.9271C31.796 54.1493 31.7575 54.4688 31.7615 54.8856L31.7848 57.2611L31.0087 57.2688ZM38.3813 58.9515L38.3194 52.618L39.0263 52.611L39.0323 53.2059C39.1967 52.9716 39.3832 52.7958 39.5921 52.6788C39.8006 52.5589 40.0543 52.4974 40.3534 52.4944C40.7444 52.4907 41.0903 52.5879 41.3911 52.7861C41.6919 52.9843 41.9205 53.2667 42.0762 53.6333C42.2323 53.9966 42.3125 54.397 42.3168 54.8338C42.3212 55.3023 42.2406 55.7258 42.0749 56.1041C41.9118 56.4794 41.6701 56.7691 41.3503 56.9733C41.0332 57.1749 40.6976 57.2775 40.3444 57.2808C40.0854 57.2835 39.8521 57.231 39.6442 57.1237C39.439 57.0164 39.2696 56.8801 39.1356 56.715L39.1576 58.9438L38.3813 58.9515ZM39.0447 54.9263C39.0507 55.5155 39.174 55.9497 39.4156 56.2291C39.6569 56.5085 39.947 56.6465 40.2862 56.6431C40.6311 56.6398 40.9242 56.4917 41.1658 56.199C41.4101 55.9036 41.5294 55.4497 41.5234 54.8374C41.5174 54.2539 41.3924 53.8181 41.1481 53.5301C40.9068 53.2423 40.6194 53.0999 40.2859 53.1029C39.9553 53.1063 39.6639 53.2644 39.4109 53.5775C39.161 53.8873 39.039 54.3372 39.0447 54.9263ZM46.2617 56.5546C45.9767 56.8016 45.7009 56.9767 45.4346 57.0799C45.1712 57.1832 44.8872 57.2363 44.5824 57.2394C44.0794 57.244 43.6917 57.1257 43.419 56.8841C43.1463 56.6395 43.0083 56.3263 43.0046 55.944C43.0023 55.7197 43.0507 55.5152 43.1493 55.3301C43.2509 55.1422 43.3833 54.9915 43.546 54.8779C43.7114 54.7643 43.8976 54.6774 44.1041 54.6179C44.2559 54.5761 44.4855 54.5353 44.7926 54.4949C45.4185 54.414 45.8791 54.3204 46.1742 54.2138C46.1758 54.1076 46.1768 54.04 46.1765 54.0113C46.1732 53.6951 46.098 53.4729 45.9499 53.3452C45.7501 53.1718 45.4543 53.0869 45.0636 53.0909C44.6983 53.0943 44.429 53.1618 44.2549 53.2928C44.0837 53.4208 43.9581 53.6477 43.8779 53.9735L43.1179 53.8773C43.1837 53.5518 43.2947 53.2891 43.4508 53.0892C43.6068 52.8867 43.8341 52.7306 44.1319 52.6214C44.4296 52.5091 44.7755 52.4513 45.1692 52.4472C45.5602 52.4436 45.8784 52.4863 46.1234 52.5759C46.3687 52.6655 46.5495 52.7801 46.6658 52.9198C46.7821 53.0568 46.8643 53.2313 46.9124 53.4435C46.9395 53.5755 46.9549 53.8138 46.9582 54.1587L46.9686 55.1937C46.9756 55.9149 46.996 56.3718 47.0294 56.5643C47.0658 56.7534 47.1337 56.9356 47.2329 57.1097L46.4225 57.1177C46.3403 56.9576 46.2868 56.7698 46.2617 56.5546ZM46.1802 54.8217C45.8995 54.9397 45.478 55.0413 44.9152 55.1275C44.5967 55.1767 44.3715 55.2305 44.2398 55.2893C44.1081 55.3481 44.0072 55.434 43.9364 55.5466C43.8655 55.6566 43.8308 55.7792 43.8321 55.9142C43.8341 56.1211 43.9133 56.2929 44.07 56.4293C44.2295 56.5656 44.4601 56.6324 44.7618 56.6294C45.0609 56.6264 45.326 56.5593 45.5576 56.4276C45.7892 56.2932 45.9583 56.1118 46.0656 55.8838C46.1471 55.7077 46.1862 55.4484 46.1829 55.1065L46.1802 54.8217ZM48.1944 57.1003L48.1496 52.5214L48.8481 52.5147L48.8545 53.1658C49.1857 52.6595 49.6692 52.4031 50.3042 52.3968C50.5803 52.3941 50.8336 52.4419 51.0645 52.5405C51.2985 52.6357 51.4736 52.7634 51.5902 52.9235C51.7069 53.0832 51.7891 53.2734 51.8372 53.4943C51.8673 53.6377 51.8843 53.8893 51.8877 54.2486L51.9154 57.0639L51.1394 57.0716L51.112 54.2864C51.109 53.9702 51.0762 53.7346 51.0144 53.5802C50.9526 53.4224 50.8436 53.2985 50.6876 53.2082C50.5342 53.1146 50.354 53.0692 50.1472 53.0712C49.8166 53.0745 49.5316 53.1822 49.2923 53.3944C49.0557 53.6066 48.9404 54.0056 48.946 54.5921L48.9704 57.0926L48.1944 57.1003ZM53.0925 58.8161L52.9989 58.0882C53.169 58.1323 53.3174 58.1541 53.4437 58.1527C53.6162 58.1511 53.7539 58.121 53.8568 58.0625C53.9597 58.004 54.0436 57.9228 54.1088 57.8185C54.1569 57.7403 54.2341 57.5472 54.3404 57.2384C54.3544 57.1952 54.3768 57.1317 54.4076 57.0482L52.6249 52.4777L53.4614 52.4696L54.4403 55.1118C54.567 55.4467 54.6813 55.7993 54.7825 56.1692C54.8681 55.812 54.971 55.4631 55.0913 55.1225L56.0441 52.4442L56.8202 52.4365L55.1238 57.11C54.9419 57.615 54.8002 57.9626 54.6986 58.1534C54.563 58.4107 54.4069 58.5989 54.2298 58.7185C54.0526 58.8412 53.8408 58.9033 53.5934 58.906C53.4441 58.9074 53.277 58.8773 53.0925 58.8161Z" fill="black"/>
<path d="M65.5732 33.9593V32.4602H66.2106C66.3706 32.4602 66.4869 32.4738 66.5591 32.5011C66.632 32.5277 66.6901 32.5754 66.7339 32.6442C66.7777 32.7131 66.7994 32.7918 66.7994 32.8805C66.7994 32.9929 66.7663 33.086 66.7002 33.1596C66.634 33.2325 66.5351 33.2785 66.4037 33.2976C66.4692 33.3358 66.523 33.3777 66.5652 33.4235C66.6083 33.469 66.6657 33.5502 66.7379 33.6668L66.9211 33.9593H66.5591L66.3402 33.6331C66.2627 33.5164 66.2092 33.4433 66.1808 33.4132C66.1521 33.3825 66.1217 33.3617 66.0899 33.3508C66.0578 33.3392 66.007 33.3334 65.9375 33.3334H65.876V33.9593H65.5732ZM65.876 33.0942H66.0999C66.2453 33.0942 66.3359 33.088 66.372 33.0757C66.4081 33.0635 66.4365 33.0424 66.4569 33.0123C66.4773 32.9824 66.4876 32.9449 66.4876 32.8999C66.4876 32.8494 66.4739 32.8089 66.4465 32.7782C66.4201 32.7468 66.3823 32.7271 66.3332 32.7189C66.3085 32.7155 66.235 32.7138 66.1123 32.7138H65.876V33.0942Z" fill="black"/>
<path d="M65.5732 33.9593V32.4602H66.2106C66.3706 32.4602 66.4869 32.4738 66.5591 32.5011C66.632 32.5277 66.6901 32.5754 66.7339 32.6442C66.7777 32.7131 66.7994 32.7918 66.7994 32.8805C66.7994 32.9929 66.7663 33.086 66.7002 33.1596C66.634 33.2325 66.5351 33.2785 66.4037 33.2976C66.4692 33.3358 66.523 33.3777 66.5652 33.4235C66.6083 33.469 66.6657 33.5502 66.7379 33.6668L66.9211 33.9593H66.5591L66.3402 33.6331C66.2627 33.5164 66.2092 33.4433 66.1808 33.4132C66.1521 33.3825 66.1217 33.3617 66.0899 33.3508C66.0578 33.3392 66.007 33.3334 65.9375 33.3334H65.876V33.9593H65.5732ZM65.876 33.0942H66.0999C66.2453 33.0942 66.3359 33.088 66.372 33.0757C66.4081 33.0635 66.4365 33.0424 66.4569 33.0123C66.4773 32.9824 66.4876 32.9449 66.4876 32.8999C66.4876 32.8494 66.4739 32.8089 66.4465 32.7782C66.4201 32.7468 66.3823 32.7271 66.3332 32.7189C66.3085 32.7155 66.235 32.7138 66.1123 32.7138H65.876V33.0942Z" fill="#030406"/>
<path d="M66.2703 31.9247C67.0864 31.9247 67.7478 32.5862 67.7478 33.4024C67.7478 34.2186 67.0864 34.88 66.2703 34.88C65.4542 34.88 64.7925 34.2186 64.7925 33.4024C64.7925 32.5862 65.4542 31.9247 66.2703 31.9247Z" stroke="black" stroke-width="5.12013" stroke-linecap="round" stroke-linejoin="round"/>
</svg>
