<?xml version="1.0" encoding="UTF-8" standalone="no"?>
<!DOCTYPE svg PUBLIC "-//W3C//DTD SVG 1.1//EN" "http://www.w3.org/Graphics/SVG/1.1/DTD/svg11.dtd">
<svg xmlns="http://www.w3.org/2000/svg" xmlns:xlink="http://www.w3.org/1999/xlink" version="1.1" width="1728pt" height="1728pt" viewBox="0 0 1728 1728">
<g enable-background="new">
<path transform="matrix(1,0,0,-1,0,1728)" d="M 858.8937 1722.3562 C 1313.3619 1722.3562 1681.7814 1339.2003 1681.7814 866.5532 C 1681.7814 393.906 1313.3619 10.7501 858.8937 10.7501 C 404.4254 10.7501 36.006 393.906 36.006 866.5532 C 36.006 1339.2003 404.4254 1722.3562 858.8937 1722.3562 Z " fill="#030406" fill-rule="evenodd"/>
<path transform="matrix(1,0,0,-1,0,1728)" stroke-width=".4799" stroke-linecap="round" stroke-linejoin="round" fill="none" stroke="#030406" d="M 858.8937 1722.3562 C 1313.3619 1722.3562 1681.7814 1339.2003 1681.7814 866.5532 C 1681.7814 393.906 1313.3619 10.7501 858.8937 10.7501 C 404.4254 10.7501 36.006 393.906 36.006 866.5532 C 36.006 1339.2003 404.4254 1722.3562 858.8937 1722.3562 Z "/>
<path transform="matrix(1,0,0,-1,0,1728)" d="M 302.9811 1163.9154 L 343.8459 1163.9869 L 433.7515 1164.1439 L 433.8751 1093.3115 L 434.014 1013.747 C 463.7948 1033.1079 499.3166 1044.3881 537.4817 1044.4547 C 608.7623 1044.5791 670.9671 1005.5733 703.7949 947.7006 L 701.0181 1086.758 L 660.1533 1086.6869 L 660.0297 1157.519 L 700.8945 1157.5905 L 790.7998 1157.7476 L 790.9237 1086.915 L 791.0626 1007.3509 C 820.8431 1026.7116 856.3652 1037.9917 894.5303 1038.0584 C 974.0546 1038.1972 1042.2836 989.6338 1071.0213 920.4999 C 1097.211 990.7685 1164.8475 1040.8768 1244.2564 1041.0158 C 1355.2095 1041.2094 1440.872 944.7338 1428.5778 835.0024 L 1432.8034 623.3842 L 1472.4832 623.4537 L 1472.6032 554.6755 L 1432.9236 554.6061 L 1345.6253 554.4536 L 1345.5051 623.2317 L 1345.3703 700.4889 C 1316.4531 681.6898 1281.9614 670.7367 1244.9032 670.6718 C 1168.4489 670.5383 1102.7418 716.7617 1074.365 782.8328 C 1047.9577 709.3837 977.7526 656.7982 895.1961 656.6539 C 811.1931 656.5073 741.2692 710.1663 715.1516 783.4983 C 687.2221 713.0602 618.5409 663.1909 538.1478 663.0503 C 423.8807 662.8507 335.66 762.2079 348.3215 875.2161 L 343.9695 1093.1546 L 303.105 1093.0833 Z M 894.6694 958.3447 C 953.3489 958.4473 1001.001 910.9613 1001.1033 852.2819 C 1001.2059 793.6027 953.7199 745.9506 895.0405 745.848 C 836.3614 745.7457 788.7093 793.2317 788.6066 851.9108 C 788.5043 910.5902 835.99 958.2423 894.6694 958.3447 Z M 1308.4087 930.9606 C 1308.9489 930.314 1309.4848 929.6629 1310.0156 929.0075 C 1309.3911 929.662 1308.767 930.3129 1308.1431 930.96 Z M 1310.5545 928.3439 C 1329.3408 904.9034 1341.9873 875.827 1337.762 843.0355 C 1331.1856 791.9955 1311.6144 779.1874 1292.6878 763.7666 C 1291.503 762.8017 1290.3543 761.891 1289.222 761.0315 C 1302.5044 802.4122 1304.6497 832.2599 1299.5824 844.3372 C 1293.1795 804.4645 1279.6897 760.5397 1244.2915 747.9734 L 1244.2918 747.9734 L 1244.2915 747.9734 C 1189.2759 745.1963 1152.7682 789.0381 1151.1522 842.0394 C 1149.5606 894.2318 1246.0779 931.5822 1215.8975 974.3615 C 1252.527 964.7994 1260.6976 950.7705 1279.2438 896.5953 C 1283.6245 883.7989 1325.9673 885.9745 1310.5545 928.3439 Z M 537.6212 964.741 C 596.3003 964.8437 643.9524 917.3577 644.055 858.6782 C 644.1574 799.9991 596.6714 752.347 537.9922 752.2444 C 479.3128 752.142 431.6607 799.628 431.5584 858.3072 C 431.4557 916.9866 478.9417 964.6387 537.6212 964.741 " fill="#ffffff" fill-rule="evenodd"/>
<g id="Layer-1" data-name="Corel_OTF">
</g>
<text fill="#ffffff" xml:space="preserve" transform="matrix(.99998077 .006199881 -.006199881 .99998077 0 1728)" font-size="174.62735" font-family="ArialMT"><tspan y="-1238.7717" x="277.71015 384.40745 481.50025">The</tspan></text>
<g id="Layer-1" data-name="Corel_OTF">
</g>
<text fill="#ffffff" xml:space="preserve" transform="matrix(.999952 -.00979953 .00979953 .999952 0 1728)" font-size="198.1685" font-family="ArialMT"><tspan y="-420.79008" x="433.61323 576.69088 686.87258">Com</tspan><tspan y="-420.7901" x="851.9469 962.1286 1072.3103">pan</tspan><tspan y="-420.79014" x="1182.4921">y</tspan></text>
<g id="Layer-1" data-name="Corel_OTF">
</g>
<text fill="#ffffff" xml:space="preserve" transform="matrix(1 0 -0 1 0 1728)" font-size="46.994" font-family="Arial" font-weight="bold"><tspan y="-962.4104" x="1468.1288">R</tspan></text>
<text fill="#030406" xml:space="preserve" transform="matrix(1 0 -0 1 0 1728)" font-size="46.994" font-family="Arial" font-weight="bold"><tspan y="-962.4104" x="1468.1288">R</tspan></text>
<g id="Layer-1" data-name="Corel_OTF">
</g>
<text fill="#f05522" xml:space="preserve" transform="matrix(1 0 -0 1 0 1728)" font-size="73.942" font-family="ArialMT"><tspan y="-312.895" x="474.6538 515.76559 532.18069 569.1517 610.2634 630.81936 688.3462 712.9689 729.384 745.7991">Live Grill</tspan></text>
<text fill="#f05522" xml:space="preserve" transform="matrix(1 0 -0 1 0 1728)" font-size="73.942" font-family="ArialMT"><tspan y="-312.895" x="474.6538 515.76559 532.18069 569.1517 610.2634 630.81936 688.3462 712.9689 729.384 745.7991">Live Grill</tspan></text>
<g id="Layer-1" data-name="Corel_OTF">
</g>
<text fill="#f05522" xml:space="preserve" transform="matrix(1 0 -0 1 0 1728)" font-size="73.942" font-family="ArialMT"><tspan y="-312.89469" x="762.2649 782.8208 803.3767 852.69607 893.8078 933.29287 974.4046 994.96047 1015.51638 1036.0723 1085.3916 1105.9475 1155.2669 1196.3787">, Bu&#xfb00;et  &#x0026; Bar</tspan></text>
<text fill="#f05522" xml:space="preserve" transform="matrix(1 0 -0 1 0 1728)" font-size="73.942" font-family="ArialMT"><tspan y="-312.89469" x="762.2649 782.8208 803.3767 852.69607 893.8078 933.29287 974.4046 994.96047 1015.51638 1036.0723 1085.3916 1105.9475 1155.2669 1196.3787">, Bu&#xfb00;et  &#x0026; Bar</tspan></text>
<path transform="matrix(1,0,0,-1,0,1728)" stroke-width="3.8401" stroke-linecap="round" stroke-linejoin="round" fill="none" stroke="#ffffff" d="M 1487.211 1011.5612 C 1505.526 1011.5612 1520.3724 996.7147 1520.3724 978.3998 C 1520.3724 960.0849 1505.526 945.2384 1487.211 945.2384 C 1468.8961 945.2384 1454.0496 960.0849 1454.0496 978.3998 C 1454.0496 996.7147 1468.8961 1011.5612 1487.211 1011.5612 Z "/>
</g>
</svg>
